# xmcd CD database file
#
# Track frame offsets:
#	150
#	16437
#	38193
#	59409
#	85234
#	104203
#	126603
#	145493
#	167469
#	188060
#	206852
#	224532
#	243262
#	264600
#	291370
#	312653
#
# Disc length: 4422 seconds
#
# Revision: 1
# Processed by: cddbd v1.4PL0 Copyright (c) Steve Scherf et al.
# Submitted via: CDex 1.50Beta7
#
DISCID=08114410
DTITLE=Various Artist - Romantic Salsa Classics
DYEAR=2000
DGENRE=Salsa
TTITLE0=Tu Amigo Amante-sls
TTITLE1=Basto Una Mirada-sls
TTITLE2=Si Supieras
TTITLE3=Una Aventura
TTITLE4=Excelente Amante
TTITLE5=Por ti no Morire
TTITLE6=Sobredosis
TTITLE7=Sin Sentimiento
TTITLE8=Tu lo Mataste
TTITLE9=Palabras Para Una Cancion
TTITLE10=Ella No Tiene la Culpa
TTITLE11=Cuerpo a Cuerpo
TTITLE12=Cuando Aparezca el Amor
TTITLE13=Corazone Partio
TTITLE14=El Amor Mueve Montanas
TTITLE15=Ven Devorame Otra Vez
EXTD=YEAR: 2000
EXTT0=
EXTT1=
EXTT2=
EXTT3=
EXTT4=
EXTT5=
EXTT6=
EXTT7=
EXTT8=
EXTT9=
EXTT10=
EXTT11=
EXTT12=
EXTT13=
EXTT14=
EXTT15=
PLAYORDER=
